# xmcd
#
# Track frame offsets: 
#        150
#        18205
#        36722
#        49410
#        64902
#        86317
#        101625
#        118032
#        130627
#        147557
#
# Disc length: 2183 seconds
#
# Revision: 2
# Processed by: cddbd v1.4PL0 Copyright (c) Steve Scherf et al.
# Submitted via: ExactAudioCopy v0.90a11
#
DISCID=8e08850a
DTITLE=John Conlee - American Faces
DYEAR=1900
DGENRE=
TTITLE0=Domestic Life
TTITLE1=Slow Passin' Time
TTITLE2=Love Crazy Love
TTITLE3=American Faces
TTITLE4=Faded Brown Eyes
TTITLE5=Mama's Rockin' Chair
TTITLE6=It's Not Easy Bein' Fifteen
TTITLE7=I Can Sail To China
TTITLE8=Living Like There's No Tomorrow (Finally Got To Me Tonight)
TTITLE9=Right Down To The Memories
EXTD=
EXTT0=
EXTT1=
EXTT2=
EXTT3=
EXTT4=
EXTT5=
EXTT6=
EXTT7=
EXTT8=( Finally Got To Me Tonight ]\n
EXTT9=
PLAYORDER=
